<?xml version="1.0" standalone="no"?>
<!DOCTYPE svg PUBLIC "-//W3C//DTD SVG 20010904//EN"
 "http://www.w3.org/TR/2001/REC-SVG-20010904/DTD/svg10.dtd">
<svg version="1.0" xmlns="http://www.w3.org/2000/svg"
 width="487.000000pt" height="242.000000pt" viewBox="0 0 487.000000 242.000000"
 preserveAspectRatio="xMidYMid meet">

<g transform="translate(0.000000,242.000000) scale(0.100000,-0.100000)"
fill="#000000" stroke="none">
<path d="M1054 1925 c-149 -32 -275 -105 -388 -225 -213 -227 -257 -559 -114
-850 33 -68 59 -102 132 -176 148 -149 290 -212 496 -221 141 -7 240 14 372
80 l87 42 54 -52 c47 -45 61 -53 94 -53 41 1 63 13 81 47 23 43 14 72 -40 129
-37 39 -49 59 -43 68 129 169 183 336 172 525 -19 328 -247 599 -571 681 -93
23 -238 26 -332 5z m316 -192 c163 -45 312 -184 372 -348 27 -75 36 -233 18
-314 -13 -62 -61 -164 -96 -208 l-23 -28 -58 56 c-32 32 -68 60 -81 64 -33 10
-80 -13 -97 -46 -27 -51 -19 -76 41 -139 l56 -59 -39 -19 c-106 -54 -283 -71
-400 -37 -186 54 -341 209 -394 395 -21 75 -16 244 10 320 55 159 171 282 328
348 93 39 252 46 363 15z"/>
<path d="M2500 1902 c-80 -27 -117 -48 -172 -100 -60 -56 -101 -127 -122 -213
-20 -81 -20 -112 -1 -149 30 -58 98 -68 144 -22 22 21 29 41 35 87 13 118 93
212 197 234 156 34 277 -73 279 -245 0 -102 -27 -143 -359 -532 -165 -193
-302 -360 -306 -372 -9 -30 3 -75 27 -96 19 -18 47 -19 404 -22 l385 -3 29 30
c38 38 41 88 6 128 l-24 28 -281 5 -281 5 211 240 c272 308 284 324 332 424
38 78 41 90 40 165 -3 190 -97 341 -250 400 -72 27 -223 31 -293 8z"/>
<path d="M3959 1907 c-15 -12 -708 -915 -743 -969 -22 -34 -15 -87 15 -114 20
-18 44 -19 355 -22 l334 -3 0 -137 c0 -125 2 -140 20 -160 27 -29 64 -37 101
-22 49 21 59 53 59 193 l0 125 81 4 c70 3 83 6 100 27 29 36 25 95 -7 120 -22
17 -41 21 -100 21 l-73 0 -3 451 -3 451 -28 24 c-31 26 -81 32 -108 11z m-42
-934 c-2 -2 -108 -2 -235 -1 l-231 3 232 305 232 305 3 -304 c1 -167 1 -306
-1 -308z"/>
</g>
</svg>
